<?xml version="1.0" encoding="UTF-8"?>
<svg id="Layer_2" data-name="Layer 2" xmlns="http://www.w3.org/2000/svg" viewBox="0 0 48 26.4">
  <defs>
    <style>
      .cls-1 {
        fill: #ed2024;
      }

      .cls-1, .cls-2 {
        stroke-width: 0px;
      }

      .cls-2 {
        fill: #841618;
      }
    </style>
  </defs>
  <g id="Layer_2-2" data-name="Layer 2">
    <g>
      <g>
        <rect class="cls-1" x="24.65" width="6.28" height="19.53"/>
        <path class="cls-1" d="m43.72,6.72h0c0,2.11-.97,3.99-2.49,5.22-1.15.93-2.62,1.5-4.22,1.5h-5.07v-6.28h5.85c.24,0,.43-.19.43-.44,0-.07-.02-.14-.05-.2,0-.01,0-.02-.02-.03v-.02s-.04-.04-.06-.06c-.08-.08-.19-.13-.31-.13h-5.85V0h5.07c3.71,0,6.72,3.01,6.72,6.72Z"/>
        <path class="cls-1" d="m45.51,19.53h-7.21l-.08-.14-2.73-4.84-.63-1.11h2.15c1.6,0,3.07-.56,4.22-1.5l.55.98,3.73,6.61Z"/>
        <rect class="cls-1" x="17.37" y="4.82" width="6.28" height="14.7"/>
        <rect class="cls-2" x="10.09" y="9.65" width="6.28" height="9.88"/>
        <rect class="cls-2" x="2.8" y="14.48" width="6.28" height="5.05"/>
        <path class="cls-2" d="m41.78,12.92c-1.36,1.05-3.05,1.63-4.78,1.63h-1.52l-.63-1.11h2.15c1.6,0,3.07-.56,4.22-1.5l.55.98Z"/>
      </g>
      <g>
        <path class="cls-1" d="m2.47,21.84c.13,0,.26,0,.39.03.13.02.25.05.37.1l-.26,1.13s-.07-.06-.17-.09c-.1-.02-.2-.04-.3-.04-.2,0-.38.02-.53.07-.15.04-.29.1-.39.16-.11.06-.19.13-.25.21-.06.07-.09.15-.09.21v2.61H0v-4.22h1.25v.66c.02-.08.08-.17.17-.27.09-.1.2-.19.32-.27.12-.08.24-.15.37-.2.13-.06.25-.08.36-.08Z"/>
        <path class="cls-1" d="m6.24,21.84c.33,0,.64.06.93.18.28.12.53.29.74.49.21.21.37.45.49.73.12.28.18.57.18.88,0,.06,0,.12,0,.19,0,.07-.01.13-.02.19h-3.36c.07.21.2.39.38.54.18.15.41.23.68.23.2,0,.39-.04.59-.12.19-.08.34-.18.44-.31l1,.62c-.11.14-.24.27-.39.39-.15.11-.31.21-.49.29-.18.08-.36.14-.56.19-.19.04-.39.07-.59.07-.33,0-.64-.06-.93-.18-.29-.12-.54-.28-.76-.49-.21-.21-.38-.45-.51-.73-.12-.28-.19-.57-.19-.88s.06-.61.19-.89c.13-.28.3-.52.51-.73.22-.2.47-.37.76-.49.29-.12.59-.18.92-.18Zm0,1.13c-.25,0-.46.07-.63.2-.17.13-.31.29-.39.48h2.06c-.08-.19-.21-.35-.39-.48-.18-.13-.39-.2-.64-.2Z"/>
        <path class="cls-1" d="m10.47,22l1.1,3.06,1.1-3.06h1.31l-1.68,4.22h-1.45l-1.68-4.22h1.31Z"/>
        <path class="cls-1" d="m16.97,21.84c.33,0,.64.06.93.18.28.12.53.29.74.49.21.21.37.45.49.73.12.28.18.57.18.88,0,.06,0,.12,0,.19,0,.07-.01.13-.02.19h-3.36c.07.21.2.39.38.54.18.15.41.23.68.23.2,0,.39-.04.59-.12.19-.08.34-.18.44-.31l1,.62c-.11.14-.24.27-.39.39-.15.11-.31.21-.49.29-.18.08-.36.14-.56.19-.19.04-.39.07-.59.07-.33,0-.64-.06-.93-.18-.29-.12-.54-.28-.76-.49-.21-.21-.38-.45-.51-.73-.12-.28-.19-.57-.19-.88s.06-.61.19-.89c.13-.28.3-.52.51-.73.22-.2.47-.37.76-.49.29-.12.59-.18.92-.18Zm0,1.13c-.25,0-.46.07-.63.2-.17.13-.31.29-.39.48h2.06c-.08-.19-.21-.35-.39-.48-.18-.13-.39-.2-.64-.2Z"/>
        <path class="cls-1" d="m21.78,20.42v5.81h-1.25v-5.81h1.25Z"/>
        <path class="cls-1" d="m28.39,21.84c.23,0,.44.05.64.14.2.09.38.22.53.39.15.16.27.35.35.57.09.22.13.45.13.7v2.6h-1.25v-2.36c0-.12-.02-.24-.06-.35-.04-.11-.1-.21-.17-.29-.07-.08-.15-.15-.24-.2-.09-.05-.19-.07-.3-.07s-.2.02-.3.07c-.09.05-.18.12-.24.2-.07.08-.12.18-.17.29-.04.11-.06.23-.06.36v2.34h-1.25v-2.36c0-.12-.02-.24-.06-.35-.04-.11-.1-.21-.17-.29-.07-.08-.15-.15-.25-.2-.09-.05-.19-.07-.3-.07s-.21.02-.3.07c-.09.05-.18.12-.25.2-.07.08-.13.18-.17.29-.04.11-.06.23-.06.36v2.34h-1.25v-4.22h1.25v.46c.15-.19.31-.34.49-.45.17-.11.38-.17.61-.17.3,0,.56.06.78.17.22.12.4.27.54.46.16-.18.36-.33.61-.46.24-.12.55-.18.92-.18Z"/>
        <path class="cls-1" d="m33.71,26.4c-.34,0-.66-.06-.96-.18-.3-.12-.56-.28-.78-.49-.22-.21-.39-.45-.52-.73-.13-.28-.19-.57-.19-.88s.06-.61.19-.89c.13-.28.31-.52.53-.73.22-.2.48-.37.78-.49.3-.12.61-.18.95-.18s.65.06.95.18c.3.12.56.29.78.49.22.21.39.45.52.73.13.28.19.57.19.88s-.07.61-.19.89c-.13.28-.31.52-.53.72-.22.2-.48.37-.78.49-.3.12-.61.18-.94.18Zm0-3.43c-.18,0-.35.03-.49.1-.15.07-.27.15-.37.26-.1.11-.18.23-.24.37-.06.14-.09.28-.09.41s.03.28.08.42c.05.14.13.26.23.37.1.11.23.2.38.26.15.07.32.1.51.1s.36-.03.5-.1c.15-.07.27-.15.37-.26.1-.11.18-.23.24-.37.06-.14.08-.27.08-.42s-.03-.28-.09-.41c-.06-.14-.14-.26-.24-.37-.1-.11-.23-.2-.37-.26-.15-.07-.31-.1-.49-.1Z"/>
        <path class="cls-1" d="m42.04,20.42v5.81h-1.25v-.34c-.18.15-.38.27-.59.36-.21.09-.43.14-.66.14-.32,0-.61-.06-.89-.18-.28-.12-.52-.28-.72-.49-.2-.21-.37-.45-.49-.73-.12-.28-.18-.57-.18-.88s.06-.61.18-.89c.12-.28.28-.52.49-.73.21-.2.45-.37.73-.49.28-.12.57-.18.88-.18.23,0,.46.05.67.14.21.09.41.21.59.35v-1.91h1.25Zm-2.37,4.85c.16,0,.31-.03.45-.09s.26-.14.37-.24c.1-.1.18-.22.25-.36.06-.14.09-.29.09-.45s-.03-.31-.09-.45-.14-.26-.25-.36c-.1-.1-.22-.18-.37-.24s-.29-.09-.45-.09-.31.03-.45.09c-.14.06-.26.14-.37.24-.1.1-.18.22-.25.36s-.09.29-.09.45.03.31.09.45c.06.14.14.26.25.36.1.1.22.18.37.24.14.06.29.09.45.09Z"/>
        <path class="cls-1" d="m45.67,21.84c.33,0,.64.06.93.18.28.12.53.29.74.49.21.21.37.45.49.73.12.28.18.57.18.88,0,.06,0,.12,0,.19,0,.07-.01.13-.02.19h-3.36c.07.21.2.39.38.54.18.15.41.23.68.23.2,0,.39-.04.59-.12.19-.08.34-.18.44-.31l1,.62c-.11.14-.24.27-.39.39-.15.11-.31.21-.49.29-.18.08-.36.14-.56.19-.19.04-.39.07-.59.07-.33,0-.64-.06-.93-.18-.29-.12-.54-.28-.76-.49-.21-.21-.38-.45-.51-.73-.12-.28-.19-.57-.19-.88s.06-.61.19-.89c.13-.28.3-.52.51-.73.22-.2.47-.37.76-.49s.59-.18.92-.18Zm0,1.13c-.25,0-.46.07-.63.2-.17.13-.31.29-.39.48h2.06c-.08-.19-.21-.35-.39-.48-.18-.13-.39-.2-.64-.2Z"/>
      </g>
    </g>
  </g>
</svg>